# xmcd CD database file
#
# Track frame offsets:
#	150
#	19540
#	33595
#	55737
#	73070
#	86590
#	101857
#	123717
#	149162
#
# Disc length: 2211 seconds
#
# Revision: 0
# Processed by: cddbd v1.5.1PL0 Copyright (c) Steve Scherf et al.
# Submitted via: CDex 1.51
#
DISCID=8508a109
DTITLE=Jimmy and Marian McPartland - Thanks for Dropping By
DYEAR=1960
DGENRE=Jazz
TTITLE0=Thanks for Dropping By
TTITLE1=Danny Boy
TTITLE2=Mystery March
TTITLE3=Peter Gunn
TTITLE4=Mr. Lucky
TTITLE5=I-M-4-U (The Jack Paar Theme)
TTITLE6=Sentimental Journey
TTITLE7=Bat Masterson
TTITLE8=Peter Gunn (alternate take)
EXTD=YEAR: 1960
EXTT0=
EXTT1=
EXTT2=
EXTT3=
EXTT4=
EXTT5=
EXTT6=
EXTT7=
EXTT8=
PLAYORDER=
